<svg xmlns="http://www.w3.org/2000/svg" viewBox="0 0 24 24"><defs><style>.cls-1{fill:#f7931a;}</style></defs><g id="Layer_2" data-name="Layer 2"><g id="Layer_1-2" data-name="Layer 1"><path class="cls-1" d="M9.81,10.08H8.63v1.59H9.75a.69.69,0,0,0,.76-.82.81.81,0,0,0-.18-.57A.69.69,0,0,0,9.81,10.08Z"/><path class="cls-1" d="M12,0A12,12,0,1,0,24,12,12,12,0,0,0,12,0ZM10.54,14.53,9.46,12.64H8.63v1.89H7.3V9.05H10a2.25,2.25,0,0,1,1.46.44,1.57,1.57,0,0,1,.52,1.3,1.74,1.74,0,0,1-.15.71,1.43,1.43,0,0,1-1,.88l1.41,2.15Zm6.16-.76a1.65,1.65,0,0,1-.67.64,2.11,2.11,0,0,1-.6.19v.73H14.5v-.71l-.29,0a2.84,2.84,0,0,1-.62-.12,2.69,2.69,0,0,1-.56-.21V13a2.42,2.42,0,0,0,.85.46,2.76,2.76,0,0,0,.9.16,1,1,0,0,0,.58-.14.5.5,0,0,0,.2-.44.43.43,0,0,0-.18-.36,1.86,1.86,0,0,0-.49-.24l-.68-.23a3.85,3.85,0,0,1-.47-.19,2,2,0,0,1-.41-.29A1.48,1.48,0,0,1,13,11.3a1.67,1.67,0,0,1-.1-.63,1.82,1.82,0,0,1,.12-.65,1.69,1.69,0,0,1,.38-.56,1.76,1.76,0,0,1,.66-.38,1.67,1.67,0,0,1,.4-.1V8.34h.93V9h.21a4.05,4.05,0,0,1,.5.12,3.26,3.26,0,0,1,.48.2v1.28a2.81,2.81,0,0,0-.42-.29,3.06,3.06,0,0,0-.49-.22,1.61,1.61,0,0,0-.53-.1,1.27,1.27,0,0,0-.45,0,.59.59,0,0,0-.32.18.46.46,0,0,0-.12.33.49.49,0,0,0,.14.36,1,1,0,0,0,.39.21l.55.19a5,5,0,0,1,.62.22,1.84,1.84,0,0,1,.49.3,1.22,1.22,0,0,1,.33.44,1.54,1.54,0,0,1,.12.63A1.83,1.83,0,0,1,16.7,13.77Z"/></g></g></svg>