<svg width="25" height="32" viewBox="0 0 25 32" fill="none" xmlns="http://www.w3.org/2000/svg">
<path fill-rule="evenodd" clipRule="evenodd" d="M20.3383 21.9877L14.1521 28.1739C13.4995 28.8264 12.6149 29.1068 11.7634 29.0143C11.1232 28.9447 10.5011 28.6647 10.0103 28.1739L3.82407 21.9877C3.25263 21.4162 2.9667 20.6668 2.96631 19.9178C2.96591 19.168 3.25184 18.4182 3.82407 17.8459L10.0103 11.6597C10.6455 11.0246 11.4993 10.7422 12.3294 10.8122C12.9941 10.8683 13.6435 11.1507 14.1521 11.6597L20.3383 17.8459C20.9098 18.4174 21.1957 19.1664 21.1961 19.9154C21.1965 20.6656 20.9106 21.4154 20.3383 21.9877ZM23.7636 17.7513L23.7692 17.7489L23.7387 17.6666C23.7158 17.6065 23.6968 17.5464 23.6719 17.4871L19.9201 7.3873L17.662 10.6222L12.0835 0C12.0835 0 3.28798 13.0824 1.05677 16.4182L1.06151 16.4186C-0.577694 18.8677 -0.319455 22.2101 1.84335 24.3729L7.62506 30.1543C10.086 32.6152 14.0763 32.6152 16.5369 30.1543L22.3186 24.3729C24.11 22.5811 24.581 19.9837 23.7636 17.7513Z" fill="#F12C4C"/>
<path fill-rule="evenodd" clipRule="evenodd" d="M12.0808 13.9292C11.0759 13.9292 10.2612 14.7439 10.2612 15.7487C10.2612 16.7536 11.0759 17.5683 12.0808 17.5683C13.0856 17.5683 13.9003 16.7536 13.9003 15.7487C13.9003 14.7439 13.0856 13.9292 12.0808 13.9292Z" fill="#F12C4C"/>
<path fill-rule="evenodd" clipRule="evenodd" d="M12.0808 22.2656C11.0759 22.2656 10.2612 23.0803 10.2612 24.0852C10.2612 25.09 11.0759 25.9047 12.0808 25.9047C13.0856 25.9047 13.9003 25.09 13.9003 24.0852C13.9003 23.0803 13.0856 22.2656 12.0808 22.2656Z" fill="#F12C4C"/>
<path fill-rule="evenodd" clipRule="evenodd" d="M16.2492 18.0972C15.2443 18.0972 14.4297 18.9118 14.4297 19.9167C14.4297 20.9216 15.2443 21.7362 16.2492 21.7362C17.2541 21.7362 18.0688 20.9216 18.0688 19.9167C18.0688 18.9118 17.2541 18.0972 16.2492 18.0972Z" fill="#F12C4C"/>
<path fill-rule="evenodd" clipRule="evenodd" d="M6.09277 19.9167C6.09277 20.9216 6.90743 21.7362 7.91271 21.7362C8.91759 21.7362 9.73224 20.9216 9.73224 19.9167C9.73224 18.9118 8.91759 18.0972 7.91271 18.0972C6.90743 18.0972 6.09277 18.9118 6.09277 19.9167Z" fill="#F12C4C"/>
</svg>
